
      <svg data-logo="logo" xmlns="http://www.w3.org/2000/svg" viewBox="0 0 272 42">
        <g id="logogram" transform="translate(0, 1) rotate(0) "><path d="M0 33L4.60606 25H12.2448C17.2569 25 21.4947 28.7103 22.1571 33.6784L23 40H13L11.5585 36.6365C10.613 34.4304 8.44379 33 6.04362 33H0Z" fill=""/><path d="M46 33L41.3939 25H33.7552C28.7431 25 24.5053 28.7103 23.8429 33.6784L23 40H33L34.4415 36.6365C35.387 34.4304 37.5562 33 39.9564 33H46Z" fill=""/><path d="M4.60606 25L18.9999 0H23L22.6032 9.52405C22.2608 17.7406 15.7455 24.3596 7.53537 24.8316L4.60606 25Z" fill="#0047C1"/><path d="M41.3939 25L27.0001 0H23L23.3968 9.52405C23.7392 17.7406 30.2545 24.3596 38.4646 24.8316L41.3939 25Z" fill="#0047C1"/></g>
        <g id="logotype" transform="translate(52, 7)"><path fill="" d="M34.70 0.77L34.70 6.51L32.95 6.51L32.95 22.26L34.70 22.26L34.70 28L21.47 28L21.47 22.26L23.15 22.26L23.15 16.48L18.25 16.48L18.25 22.26L19.93 22.26L19.93 28L6.70 28L6.70 22.26L8.45 22.26L8.45 6.51L6.70 6.51L6.70 0.77L19.93 0.77L19.93 6.51L18.25 6.51L18.25 11.83L23.15 11.83L23.15 6.51L21.47 6.51L21.47 0.77L34.70 0.77ZM46.46 28.49Q41.49 28.49 38.69 25.88Q35.89 23.27 35.89 18.27L35.89 18.27Q35.89 13.26 38.69 10.66Q41.49 8.05 46.46 8.05L46.46 8.05Q51.50 8.05 54.27 10.69Q57.03 13.33 57.03 18.27L57.03 18.27Q57.03 23.27 54.23 25.88Q51.43 28.49 46.46 28.49L46.46 28.49ZM46.46 22.26Q47.48 22.26 47.98 21.72Q48.49 21.17 48.49 20.02L48.49 20.02L48.49 16.52Q48.49 15.36 47.98 14.82Q47.48 14.28 46.46 14.28L46.46 14.28Q45.45 14.28 44.94 14.82Q44.43 15.36 44.43 16.52L44.43 16.52L44.43 20.02Q44.43 21.17 44.94 21.72Q45.45 22.26 46.46 22.26L46.46 22.26ZM91.96 22.26L93.50 22.26L93.50 28L82.44 28L82.44 22.26L83.91 22.26L83.91 16.52Q83.91 15.36 83.42 14.82Q82.93 14.28 81.95 14.28L81.95 14.28Q79.85 14.28 79.85 16.52L79.85 16.52L79.85 22.26L81.32 22.26L81.32 28L70.33 28L70.33 22.26L71.80 22.26L71.80 16.52Q71.80 15.36 71.31 14.82Q70.82 14.28 69.84 14.28L69.84 14.28Q67.74 14.28 67.74 16.52L67.74 16.52L67.74 22.26L69.21 22.26L69.21 28L58.15 28L58.15 22.26L59.69 22.26L59.69 14.28L58.15 14.28L58.15 8.54L67.74 8.54L67.74 11.27Q70.26 8.05 74.04 8.05L74.04 8.05Q76.18 8.05 77.52 9.05Q78.87 10.04 79.43 11.86L79.43 11.86Q80.69 10.04 82.32 9.06Q83.95 8.08 86.15 8.08L86.15 8.08Q89.06 8.08 90.51 9.90Q91.96 11.72 91.96 14.91L91.96 14.91L91.96 22.26ZM105.05 28.49Q100.08 28.49 97.28 25.88Q94.48 23.27 94.48 18.27L94.48 18.27Q94.48 13.26 97.28 10.66Q100.08 8.05 105.05 8.05L105.05 8.05Q109.99 8.05 112.17 10.62Q114.36 13.19 114.36 17.01L114.36 17.01L114.36 19.53L103.02 19.53L103.02 19.74Q103.02 21.04 103.79 21.65Q104.56 22.26 106.35 22.26L106.35 22.26Q108.48 22.26 110.41 21.95Q112.33 21.63 113.77 21.14L113.77 21.14L113.77 26.74Q112.54 27.41 110.18 27.95Q107.82 28.49 105.05 28.49L105.05 28.49ZM103.02 15.68L107.08 15.68L107.08 15.26Q107.08 14.07 106.57 13.54Q106.07 13.02 105.05 13.02L105.05 13.02Q104.04 13.02 103.53 13.56Q103.02 14.10 103.02 15.26L103.02 15.26L103.02 15.68ZM129.06 28.49Q122.45 28.49 118.86 25.13Q115.27 21.77 115.27 14.38L115.27 14.38Q115.27 0.28 128.99 0.28L128.99 0.28Q132.32 0.28 135.17 1.08Q138.02 1.89 139.42 2.87L139.42 2.87L139.42 11.62L131.02 11.62L131.02 9.10Q131.02 7.77 130.43 7.14Q129.83 6.51 128.64 6.51L128.64 6.51Q127.45 6.51 126.86 7.14Q126.26 7.77 126.26 9.10L126.26 9.10L126.26 19.67Q126.26 21 126.86 21.63Q127.45 22.26 128.64 22.26L128.64 22.26Q129.83 22.26 130.43 21.63Q131.02 21 131.02 19.67L131.02 19.67L131.02 16.84L139.42 16.84L139.42 25.90Q137.99 26.88 135.17 27.68Q132.35 28.49 129.06 28.49L129.06 28.49ZM151.11 28.49Q146.14 28.49 143.34 25.88Q140.54 23.27 140.54 18.27L140.54 18.27Q140.54 13.26 143.34 10.66Q146.14 8.05 151.11 8.05L151.11 8.05Q156.15 8.05 158.92 10.69Q161.68 13.33 161.68 18.27L161.68 18.27Q161.68 23.27 158.88 25.88Q156.08 28.49 151.11 28.49L151.11 28.49ZM151.11 22.26Q152.13 22.26 152.63 21.72Q153.14 21.17 153.14 20.02L153.14 20.02L153.14 16.52Q153.14 15.36 152.63 14.82Q152.13 14.28 151.11 14.28L151.11 14.28Q150.10 14.28 149.59 14.82Q149.08 15.36 149.08 16.52L149.08 16.52L149.08 20.02Q149.08 21.17 149.59 21.72Q150.10 22.26 151.11 22.26L151.11 22.26ZM177.75 8.05Q178.45 8.05 179.08 8.19Q179.71 8.33 180.13 8.54L180.13 8.54L180.13 15.22Q178.69 14.63 177.05 14.63L177.05 14.63Q174.84 14.63 173.65 15.78Q172.46 16.94 172.46 19.21L172.46 19.21L172.46 22.26L175.61 22.26L175.61 28L162.87 28L162.87 22.26L164.41 22.26L164.41 14.28L162.87 14.28L162.87 8.54L172.46 8.54L172.46 11.09Q173.44 9.63 174.70 8.84Q175.96 8.05 177.75 8.05L177.75 8.05ZM191.68 28.49Q186.71 28.49 183.91 25.88Q181.11 23.27 181.11 18.27L181.11 18.27Q181.11 13.26 183.91 10.66Q186.71 8.05 191.68 8.05L191.68 8.05Q196.61 8.05 198.80 10.62Q200.99 13.19 200.99 17.01L200.99 17.01L200.99 19.53L189.65 19.53L189.65 19.74Q189.65 21.04 190.42 21.65Q191.19 22.26 192.97 22.26L192.97 22.26Q195.11 22.26 197.03 21.95Q198.96 21.63 200.39 21.14L200.39 21.14L200.39 26.74Q199.17 27.41 196.80 27.95Q194.44 28.49 191.68 28.49L191.68 28.49ZM189.65 15.68L193.71 15.68L193.71 15.26Q193.71 14.07 193.20 13.54Q192.69 13.02 191.68 13.02L191.68 13.02Q190.66 13.02 190.15 13.56Q189.65 14.10 189.65 15.26L189.65 15.26L189.65 15.68ZM210.54 28.49Q206.13 28.49 202.03 27.09L202.03 27.09L202.03 21.91L207.71 21.91L207.71 22.26Q207.71 23.94 209.84 23.94L209.84 23.94Q211.73 23.94 211.73 22.64L211.73 22.64Q211.73 21.95 211.19 21.59Q210.65 21.24 209.28 21L209.28 21L207.53 20.68Q202.03 19.70 202.03 14.45L202.03 14.45Q202.03 11.41 204.34 9.73Q206.66 8.05 210.57 8.05L210.57 8.05Q214.95 8.05 217.96 9.52L217.96 9.52L217.96 14.38L212.64 14.38L212.64 14.03Q212.64 13.33 212.17 12.97Q211.69 12.60 210.78 12.60L210.78 12.60Q209.03 12.60 209.03 13.72L209.03 13.72Q209.03 14.31 209.53 14.63Q210.02 14.94 211.31 15.22L211.31 15.22L213.31 15.61Q216.42 16.20 217.75 17.81Q219.08 19.42 219.08 21.95L219.08 21.95Q219.08 25.13 216.86 26.81Q214.63 28.49 210.54 28.49L210.54 28.49Z"/></g>
        
      </svg>
    